<svg enable-background="new 0 0 264 88" viewBox="0 0 264 88" xmlns="http://www.w3.org/2000/svg"><path d="m67 59v3.6c-6.3.8-9.2 5.5-10 9.4 2.2-2.7 5.6-4.9 10-4.9v3.5l6-5.7z"/><path d="m13 29v-5h2v3h3v2zm0-14h5v2h-3v3h-2zm18 0v5h-2v-3h-3v-2zm0 14h-5v-2h3v-3h2z"/><path d="m62 24v5h-2v-3h-3v-2zm0-4h-5v-2h3v-3h2zm8 0v-5h2v3h3v2zm0 4h5v2h-3v3h-2z"/><path d="m20.6 66-5.6-5.6 1.4-1.4 5.6 5.6 5.6-5.6 1.4 1.4-5.6 5.6 5.6 5.6-1.4 1.4-5.6-5.6-5.6 5.6-1.4-1.4z"/><path d="m161 28.6-3.3-3.3-1.4 1.4 3.3 3.3z"/><path d="m152.4 27.7c-3.5 0-6.4-2.9-6.4-6.4s2.9-6.4 6.4-6.4 6.4 2.9 6.4 6.4-2.9 6.4-6.4 6.4zm0-11.2c-2.7 0-4.8 2.2-4.8 4.8s2.2 4.8 4.8 4.8c2.7 0 4.8-2.2 4.8-4.8s-2.2-4.8-4.8-4.8z"/><path d="m149.8 20.9h5.1v1h-5.1z"/><path d="m117 28.6-1.4 1.4-3.3-3.3 1.4-1.4z"/><path d="m108.4 27.7c-3.5 0-6.4-2.9-6.4-6.4s2.9-6.4 6.4-6.4 6.4 2.9 6.4 6.4-2.9 6.4-6.4 6.4zm0-11.2c-2.7 0-4.8 2.2-4.8 4.8s2.2 4.8 4.8 4.8c2.7 0 4.8-2.2 4.8-4.8s-2.2-4.8-4.8-4.8z"/><path d="m105.8 20.9h5.1v1h-5.1z"/><path d="m108.9 18.8-.1 5.1h-1l.1-5.1z"/><path d="m154.7 64.3-5.3-5.3 5.3-5.3c.4-.4.4-1 0-1.4s-1-.4-1.4 0l-6 6c-.4.4-.4 1 0 1.4l6 6c.2.2.4.3.7.3s.5-.1.7-.3c.4-.4.4-1 0-1.4z"/><path d="m109.3 64.3 5.3-5.3-5.3-5.3c-.4-.4-.4-1 0-1.4s1-.4 1.4 0l6 6c.4.4.4 1 0 1.4l-6 6c-.2.2-.4.3-.7.3s-.5-.1-.7-.3c-.4-.4-.4-1 0-1.4z"/></svg>